<svg xmlns="http://www.w3.org/2000/svg" xmlns:xlink="http://www.w3.org/1999/xlink" preserveAspectRatio="xMidYMid" width="37.5" height="38" viewBox="0 0 37.5 38">
  <defs>
    <style>
      .cls-1 {
        stroke: #f26522;
        stroke-width: 2px;
        fill: none;
        fill-rule: evenodd;
      }
    </style>
  </defs>
  <g>
    <path d="M33.735,25.148 C37.977,19.037 37.262,10.831 31.949,5.524 C25.921,-0.497 16.186,-0.497 10.158,5.524 C7.524,8.155 6.050,11.545 5.738,15.023 C5.693,15.648 5.649,16.228 5.693,16.852 C5.783,20.643 7.301,24.390 10.203,27.289 C13.195,30.277 17.124,31.838 21.098,31.838 C21.321,31.838 21.545,31.838 21.723,31.793 C22.348,31.748 22.929,31.704 23.554,31.615 C25.742,31.258 27.885,30.410 29.805,29.073 L35.253,31.526 C35.521,31.615 35.789,31.570 36.012,31.392 C36.235,31.213 36.280,30.901 36.146,30.634 L33.735,25.148 Z" class="cls-1"/>
    <path d="M3.862,16.852 C0.335,21.045 0.022,27.065 3.148,31.615 L1.273,35.852 C1.183,36.119 1.228,36.387 1.407,36.610 C1.585,36.833 1.898,36.878 2.166,36.744 L6.408,34.870 C8.506,36.298 10.918,37.011 13.329,37.011 C16.410,37.011 19.446,35.852 21.813,33.577 " class="cls-1"/>
  </g>
</svg>
